<?xml version="1.0" encoding="UTF-8" standalone="no"?>
<!-- Created with Inkscape (http://www.inkscape.org/) -->

<svg
   width="104mm"
   height="107mm"
   viewBox="0 0 104 107"
   version="1.1"
   id="svg1"
   xml:space="preserve"
   inkscape:version="1.3.2 (091e20e, 2023-11-25, custom)"
   sodipodi:docname="coffeebeanblack.svg"
   inkscape:export-filename="coffeebeanBestSeller.png"
   inkscape:export-xdpi="96"
   inkscape:export-ydpi="96"
   xmlns:inkscape="http://www.inkscape.org/namespaces/inkscape"
   xmlns:sodipodi="http://sodipodi.sourceforge.net/DTD/sodipodi-0.dtd"
   xmlns="http://www.w3.org/2000/svg"
   xmlns:svg="http://www.w3.org/2000/svg"><sodipodi:namedview
     id="namedview1"
     pagecolor="#ffffff"
     bordercolor="#000000"
     borderopacity="0.25"
     inkscape:showpageshadow="2"
     inkscape:pageopacity="0.0"
     inkscape:pagecheckerboard="0"
     inkscape:deskcolor="#d1d1d1"
     inkscape:document-units="mm"
     inkscape:zoom="1.078823"
     inkscape:cx="42.639063"
     inkscape:cy="324.89112"
     inkscape:window-width="1350"
     inkscape:window-height="1237"
     inkscape:window-x="231"
     inkscape:window-y="95"
     inkscape:window-maximized="0"
     inkscape:current-layer="layer1" /><defs
     id="defs1" /><g
     inkscape:label="Layer 1"
     inkscape:groupmode="layer"
     id="layer1"><path
       d="m 96.643644,8.6572221 c -3.67097,7.3885499 -7.7855,15.8734799 -10.342,20.8586699 -4.90503,9.56481 -16.43224,16.18662 -46.598192,32.37322 -16.8765,9.05568 -25.685212,25.321113 -30.1780033,37.900013 A 38.353385,63.155205 43.054019 0 0 73.136044,86.826095 38.353385,63.155205 43.054019 0 0 99.478101,12.224442 38.353385,63.155205 43.054019 0 0 96.643644,8.6572221 Z"
       style="stroke:#808080;stroke-width:0;stroke-linecap:round;stroke-linejoin:round"
       id="path6" /><path
       d="M 91.554034,4.4419721 A 38.353385,63.155205 43.054019 0 0 31.693605,20.288552 38.353385,63.155205 43.054019 0 0 4.9960097,94.148125 C 9.6231217,81.764675 18.366667,66.304412 34.674302,57.553982 c 30.165962,-16.18661 41.693152,-22.80893 46.598192,-32.37374 2.5411,-4.95516 6.62696,-13.38009 10.28154,-20.7382699 z"
       style="stroke:#ffc107;stroke-width:0;stroke-linecap:round;stroke-linejoin:round;fill:#ffc107;stroke-opacity:0;fill-opacity:1"
       id="path5" /></g></svg>
